<?xml version="1.0" encoding="UTF-8" standalone="no"?>
<!DOCTYPE svg PUBLIC "-//W3C//DTD SVG 1.1//EN" "http://www.w3.org/Graphics/SVG/1.1/DTD/svg11.dtd">
<svg width="100%" height="100%" viewBox="0 0 1494 411" version="1.1" xmlns="http://www.w3.org/2000/svg" xmlns:xlink="http://www.w3.org/1999/xlink" xml:space="preserve" xmlns:serif="http://www.serif.com/" style="fill-rule:evenodd;clip-rule:evenodd;stroke-linejoin:round;stroke-miterlimit:2;">
    <g transform="matrix(1,0,0,1,-213.13,-334.738)">
        <g transform="matrix(2.68205,0,0,2.70754,-170.69,-595.195)">
            <g>
                <g transform="matrix(0.965926,0.258819,-0.258819,0.965926,45.6027,-148.191)">
                    <path d="M557.137,424.947L564.27,468.746L558.003,468.746C557.791,467.38 557.493,465.976 557.106,464.533C554.793,455.899 550.441,450.039 544.31,446.769C538.253,443.539 530.812,442.961 521.967,445.331L513.422,447.621L515.352,435.772C521.246,432.208 524.967,427.731 526.668,422.49C528.688,416.263 527.919,408.935 524.008,400.55L521.844,395.909L526.398,367.946L547.854,367.946L550.332,383.163L546.235,384.261L557.137,424.947ZM550.912,386.728L551.316,389.207L550.669,386.793L550.912,386.728ZM543.678,435.338L536.622,385.514L536.334,385.514L529.422,435.338L543.678,435.338ZM554.327,468.746L548.43,468.746L546.068,452.331C549.551,455.346 552.062,459.726 553.602,465.472C553.901,466.59 554.143,467.681 554.327,468.746ZM540.602,449.018L527.55,449.018L525.28,464.563L520.179,465.93L513.38,451.353L522.897,448.803C529.748,446.967 535.65,447.039 540.602,449.018ZM509.982,468.746L511.925,456.813L517.49,468.746L509.982,468.746ZM516.146,430.897L520.808,402.27C524.18,409.582 524.983,415.96 523.217,421.403C522.036,425.043 519.679,428.208 516.146,430.897Z" style="fill-rule:nonzero;"/>
                </g>
                <g transform="matrix(6.12323e-17,1,-1,6.12323e-17,826.374,15.7934)">
                    <path d="M406.062,454.433L423.969,454.433C425.243,455.335 426.89,455.786 428.91,455.786C430.681,455.786 432.165,455.439 433.363,454.746C438.947,455.443 443.365,457.307 446.617,460.337C447.155,460.839 447.659,461.372 448.129,461.938C447.703,462.505 447.248,463.046 446.766,463.562C442.638,467.978 436.686,470.186 428.91,470.186C428.318,470.186 427.736,470.174 427.165,470.148C427.039,468.783 426.919,467.413 426.805,466.039C426.65,464.161 425.096,462.716 423.23,462.713C421.363,462.711 419.805,464.15 419.644,466.027C419.564,466.956 419.487,467.884 419.414,468.81C416.087,467.715 413.3,465.966 411.054,463.562C408.743,461.091 407.079,458.048 406.062,454.433ZM423.523,469.789C423.331,469.759 423.14,469.727 422.95,469.693C423.037,468.578 423.128,467.461 423.224,466.341C423.32,467.494 423.419,468.643 423.523,469.789ZM432.261,366.653C438.417,367.213 443.252,369.372 446.766,373.13C450.894,377.546 452.958,383.786 452.958,391.85L452.958,444.842C452.958,450.31 452.009,454.938 450.112,458.729C449.772,458.364 449.42,458.011 449.054,457.671C445.78,454.62 441.488,452.532 436.144,451.516C436.793,450.02 437.118,448.132 437.118,445.85L437.118,390.842C437.118,384.218 434.382,380.906 428.91,380.906C423.438,380.906 420.702,384.218 420.702,390.842L420.702,398.909L404.862,401.703L404.862,391.85C404.862,384.757 406.459,379.075 409.652,374.805C410.09,374.22 410.557,373.662 411.054,373.13C412.024,372.092 413.095,371.176 414.267,370.382C418.081,367.798 422.961,366.506 428.91,366.506C430.067,366.506 431.184,366.555 432.261,366.653ZM404.862,421.47L404.862,405.386L420.702,402.592L420.702,418.676L404.862,421.47ZM420.702,422.359L420.702,445.85C420.702,447.784 420.935,449.436 421.401,450.805L405.287,450.805C405.003,448.943 404.862,446.955 404.862,444.842L404.862,425.153L420.702,422.359Z" style="fill-rule:nonzero;"/>
                </g>
                <g transform="matrix(1,0,0,1,-23.4166,0)">
                    <path d="M347.55,372.589C347.952,372.92 348.335,373.268 348.696,373.634C352.44,377.426 354.312,383.258 354.312,391.13L354.312,395.162C354.312,400.346 353.472,404.57 351.792,407.834C350.732,409.895 349.318,411.591 347.55,412.925L347.55,372.589ZM347.55,416.791C352.695,419.951 355.461,425.721 355.849,434.101C353.069,434.081 350.302,434.096 347.55,434.147L347.55,416.791ZM359.482,434.148C359.106,425.042 356.178,418.634 351,414.757C352.626,413.285 353.967,411.522 355.024,409.467C356.922,405.779 357.94,401.02 357.94,395.162L357.94,391.13C357.94,382.098 355.586,375.472 351.29,371.122C350.201,370.019 348.956,369.041 347.55,368.196L347.55,367.946L371.742,367.946C379.614,367.946 385.518,370.058 389.454,374.282C393.39,378.506 395.358,384.698 395.358,392.858L395.358,443.834C395.358,445.712 395.253,447.486 395.045,449.156C394.348,454.74 392.484,459.159 389.454,462.41C388.952,462.949 388.418,463.453 387.853,463.923C383.981,467.138 378.61,468.746 371.742,468.746L347.611,468.746C349.382,467.748 350.961,466.548 352.354,465.156C356.947,460.562 359.439,453.977 359.522,445.295C359.691,445.271 359.861,445.247 360.03,445.223C361.147,445.068 362.266,444.916 363.39,444.769L363.39,454.346L371.454,454.346C374.046,454.346 376.038,453.578 377.43,452.042C378.822,450.506 379.518,448.01 379.518,444.554L379.518,442.97L379.643,442.959C381.008,442.833 382.378,442.713 383.752,442.599C385.63,442.443 387.074,440.89 387.077,439.023C387.08,437.157 385.64,435.599 383.763,435.437C382.834,435.357 381.907,435.281 380.98,435.208C380.492,435.169 380.005,435.132 379.518,435.095L379.518,392.138C379.518,388.682 378.822,386.186 377.43,384.65C376.038,383.114 374.046,382.346 371.454,382.346L363.39,382.346L363.39,434.243C362.121,434.205 360.856,434.174 359.593,434.15L359.482,434.148ZM380.098,438.744C381.213,438.83 382.33,438.921 383.449,439.017C382.297,439.113 381.148,439.213 380.002,439.317C379.84,439.331 379.679,439.346 379.518,439.361L379.518,438.699C379.711,438.714 379.904,438.729 380.098,438.744ZM363.39,437.838L363.39,441.144C362.097,441.312 360.808,441.486 359.524,441.665L359.524,437.744C360.81,437.768 362.098,437.799 363.39,437.838ZM355.896,437.696L355.896,442.188C353.092,442.605 350.309,443.049 347.55,443.521L347.55,437.742C350.318,437.689 353.1,437.674 355.896,437.696ZM347.55,447.168C350.305,446.693 353.084,446.245 355.885,445.824C355.719,453.119 353.683,458.72 349.776,462.626C349.088,463.315 348.346,463.945 347.55,464.517L347.55,447.168Z" style="fill-rule:nonzero;"/>
                </g>
                <g transform="matrix(0.984801,-0.173689,0.173689,0.984801,-128.246,66.9584)">
                    <path d="M463.614,367.946L486.942,367.946C494.814,367.946 500.718,370.058 504.654,374.282C508.59,378.506 510.558,384.698 510.558,392.858L510.558,402.794C510.558,410.954 508.59,417.146 504.654,421.37C500.718,425.594 494.814,427.706 486.942,427.706L479.454,427.706L479.454,468.746L463.614,468.746L463.614,367.946ZM486.942,413.306C489.534,413.306 491.478,412.586 492.774,411.146C494.07,409.706 494.718,407.258 494.718,403.802L494.718,391.85C494.718,388.394 494.07,385.946 492.774,384.506C491.478,383.066 489.534,382.346 486.942,382.346L479.454,382.346L479.454,413.306L486.942,413.306Z" style="fill-rule:nonzero;"/>
                </g>
                <g transform="matrix(1,0,0,1,-94.5027,0)">
                    <path d="M571.902,367.946L594.51,367.946L604.59,440.09L604.878,440.09L614.958,367.946L637.566,367.946L637.566,468.746L622.59,468.746L622.59,392.426L622.302,392.426L610.782,468.746L597.534,468.746L586.014,392.426L585.726,392.426L585.726,468.746L571.902,468.746L571.902,367.946Z" style="fill-rule:nonzero;"/>
                </g>
                <g transform="matrix(1,0,0,1,-105.085,0)">
                    <rect x="649.374" y="367.946" width="15.84" height="100.8" style="fill-rule:nonzero;"/>
                </g>
                <g transform="matrix(1,0,0,1,-115.668,0)">
                    <path d="M677.022,367.946L696.894,367.946L712.302,428.282L712.59,428.282L712.59,367.946L726.702,367.946L726.702,468.746L710.43,468.746L691.422,395.162L691.134,395.162L691.134,468.746L677.022,468.746L677.022,367.946Z" style="fill-rule:nonzero;"/>
                </g>
                <g transform="matrix(0.836307,0,0,0.836307,-159.543,25.3793)">
                    <path d="M1017.5,442.008L1017.5,454.394L998.56,454.394L998.56,442.008L1017.5,442.008ZM998.56,475.91L998.56,458.692L1017.5,458.692L1017.5,475.91L998.56,475.91ZM1017.5,480.207L1017.5,495.709L998.56,495.709L998.56,480.207L1017.5,480.207Z"/>
                </g>
                <g transform="matrix(1,0,0,1,-126.225,0)">
                    <path d="M766.189,382.346L754.35,382.346L754.35,408.986L766.189,408.986L766.189,423.386L754.35,423.386L754.35,454.346L766.189,454.346L766.189,468.746L738.51,468.746L738.51,367.946L766.189,367.946L766.189,382.346ZM769.817,367.946L781.71,367.946L781.71,382.346L769.817,382.346L769.817,367.946ZM789.285,408.986L826.272,408.986L826.272,423.386L789.285,423.386L789.285,408.986ZM785.657,423.386L769.817,423.386L769.817,408.986L785.657,408.986L785.657,423.386ZM781.71,468.746L769.817,468.746L769.817,454.346L781.71,454.346L781.71,468.746Z" style="fill-rule:nonzero;"/>
                </g>
                <g transform="matrix(0.836307,0,0,0.836307,-159.543,25.3793)">
                    <path d="M1017.5,495.709L1017.5,500.36C1017.5,510.118 1015.15,517.522 1010.44,522.572C1005.73,527.623 998.675,530.149 989.262,530.149L960.335,530.149L960.335,409.619L989.262,409.619C998.675,409.619 1005.73,412.144 1010.44,417.195C1015.15,422.246 1017.5,429.65 1017.5,439.407L1017.5,442.008L998.56,442.008L998.56,438.546C998.56,434.413 997.728,431.429 996.063,429.592C994.399,427.756 992.017,426.837 988.918,426.837L979.275,426.837L979.275,512.93L988.918,512.93C992.017,512.93 994.399,512.012 996.063,510.175C997.728,508.338 998.56,505.354 998.56,501.221L998.56,495.709L1017.5,495.709Z"/>
                </g>
                <g transform="matrix(0.836307,0,0,0.171473,-159.543,355.78)">
                    <rect x="998.56" y="442.008" width="18.94" height="53.701"/>
                </g>
                <g transform="matrix(0.836307,0,0,0.162448,-159.543,320.674)">
                    <rect x="998.56" y="442.008" width="18.94" height="53.701"/>
                </g>
                <g transform="matrix(0.332517,0,0,0.329386,114.876,144.154)">
                    <path d="M179.716,1065.36L356.361,638.715L417.227,638.715L496.263,820.503L496.263,996.357L572.719,996.357L602.736,1065.4L519.455,1065.4L386.8,728.21L257.839,1065.4L179.716,1065.36ZM507.173,845.598L567.975,985.447L507.173,985.447L507.173,845.598Z"/>
                </g>
                <g transform="matrix(0.725598,0,0,0.718765,-1.4892,37.3454)">
                    <path d="M323.679,441.302C299.189,487.211 252.269,505.234 199.278,515.71C264.103,513.755 317.519,493.261 351.572,441.302L323.679,441.302Z"/>
                </g>
                <g transform="matrix(0.332517,0,0,0.329386,126.936,186.63)">
                    <path d="M494.119,770.038C502.213,768.901 510.354,767.891 518.541,767.007L518.541,795.425C514.502,796.42 510.482,797.436 506.482,798.473C494.442,801.596 482.581,804.915 470.905,808.429L470.905,773.677C478.599,772.344 486.337,771.132 494.119,770.038ZM529.452,765.905C539.433,764.966 549.482,764.21 559.598,763.631C563.226,763.424 566.863,763.239 570.509,763.077C586.232,762.377 602.113,762.099 618.145,762.223C621.775,762.251 625.411,762.299 629.056,762.368C652.721,762.816 676.711,764.125 701.008,766.236C676.54,768.284 652.544,770.964 629.056,774.273C625.407,774.787 621.77,775.316 618.145,775.861C602.013,778.284 586.127,781.008 570.497,784.032C566.833,784.741 563.182,785.466 559.546,786.208C549.402,788.278 539.37,790.477 529.452,792.803L529.452,765.905ZM221.57,936.445L143.447,936.405C178.329,903.454 215.083,875.738 253.562,852.796C306.889,821.001 363.528,798.373 423.088,783.683C435.269,780.678 447.572,778.006 459.994,775.655L459.994,811.786C452.282,814.212 444.653,816.725 437.11,819.325C354.14,847.917 281.471,887.004 221.57,936.445Z"/>
                </g>
                <g transform="matrix(1,0,0,1,-5.85415,0)">
                    <path d="M289.374,468.746L289.374,367.946L313.278,367.946C320.65,367.946 326.22,369.494 329.987,372.589C330.39,372.92 330.772,373.268 331.134,373.634C334.878,377.426 336.75,383.258 336.75,391.13L336.75,395.162C336.75,400.346 335.91,404.57 334.23,407.834C333.169,409.895 331.755,411.591 329.987,412.925C328.954,413.704 327.8,414.359 326.526,414.89L326.526,415.178C327.779,415.606 328.933,416.144 329.987,416.791C335.132,419.951 337.899,425.721 338.286,434.101C335.506,434.081 332.74,434.096 329.987,434.147C327.471,434.194 324.966,434.272 322.473,434.38C322.34,430.438 321.555,427.662 320.118,426.05C318.534,424.274 315.918,423.386 312.27,423.386L305.214,423.386L305.214,454.346L314.286,454.346C317.07,454.346 319.134,453.602 320.478,452.114C321.227,451.284 321.768,450.118 322.099,448.616C322.459,448.546 322.819,448.477 323.179,448.408C325.432,447.976 327.702,447.563 329.987,447.168C332.743,446.693 335.521,446.245 338.323,445.824C338.157,453.119 336.12,458.72 332.214,462.626C331.525,463.315 330.783,463.945 329.987,464.517C326.064,467.337 320.83,468.746 314.286,468.746L289.374,468.746ZM338.334,437.696L338.334,442.188C335.529,442.605 332.747,443.049 329.987,443.521C327.469,443.951 324.97,444.404 322.49,444.879C322.492,444.725 322.494,444.569 322.494,444.41L322.494,437.977C324.98,437.867 327.478,437.789 329.987,437.742C332.755,437.689 335.538,437.674 338.334,437.696ZM311.406,408.986C314.574,408.986 316.95,408.17 318.534,406.538C320.118,404.906 320.91,402.17 320.91,398.33L320.91,392.714C320.91,389.066 320.262,386.426 318.966,384.794C317.67,383.162 315.63,382.346 312.846,382.346L305.214,382.346L305.214,408.986L311.406,408.986Z" style="fill-rule:nonzero;"/>
                </g>
                <g transform="matrix(0.332517,0,0,0.329386,126.936,186.63)">
                    <path d="M494.119,770.038C502.213,768.901 510.354,767.891 518.541,767.007L518.541,795.425C514.502,796.42 510.482,797.436 506.482,798.473C494.442,801.596 482.581,804.915 470.905,808.429L470.905,773.677C478.599,772.344 486.337,771.132 494.119,770.038ZM529.452,765.905C539.433,764.966 549.482,764.21 559.598,763.631C563.226,763.424 566.863,763.239 570.509,763.077C586.232,762.377 602.113,762.099 618.145,762.223C621.775,762.251 625.411,762.299 629.056,762.368C652.721,762.816 676.711,764.125 701.008,766.236C676.54,768.284 652.544,770.964 629.056,774.273C625.407,774.787 621.77,775.316 618.145,775.861C602.013,778.284 586.127,781.008 570.497,784.032C566.833,784.741 563.182,785.466 559.546,786.208C549.402,788.278 539.37,790.477 529.452,792.803L529.452,765.905ZM221.57,936.445L143.447,936.405C178.329,903.454 215.083,875.738 253.562,852.796C306.889,821.001 363.528,798.373 423.088,783.683C435.269,780.678 447.572,778.006 459.994,775.655L459.994,811.786C452.282,814.212 444.653,816.725 437.11,819.325C354.14,847.917 281.471,887.004 221.57,936.445Z"/>
                </g>
            </g>
        </g>
    </g>
</svg>
